<svg xmlns="http://www.w3.org/2000/svg" viewBox="0 0 16.76 32.69">
  <path fill="#636466" d="M16.76 32.69V4.85L8.39 0 0 4.85v27.84z"/>
  <path fill="#828385" d="M8.38 19.27v13.42h8.38V14.44z"/>
  <path fill="#737476" d="M0 32.69h8.37V19.27L0 14.44z"/>
  <path fill="#fff" d="M2.33 13.26V6.3L8.38 2.8l6.02 3.48v6.98l-1.72 1V7.3L8.36 4.8 4.04 7.28v6.97z"/>
  <path fill="#fff" d="M5.78 15.26V8.28l1.73-1v6.98l.86.5.86-.5V7.3l1.73.98v6.98l-2.59 1.5zm-3.4 3.3h.52l.25.73.27-.73h.5v1.36h-.4v-.84l-.33.84h-.12l-.33-.84v.84h-.35zm2.29.85h.3l-.15-.53zm-.08-.85h.5l.43 1.36h-.41l-.07-.25H4.6l-.08.25h-.36zM5.63 19.25v-.02c0-.4.3-.69.72-.69.31 0 .6.15.62.5H6.6c-.02-.12-.1-.2-.24-.2-.2 0-.3.16-.3.4v.01c0 .22.07.4.3.4.2 0 .27-.1.28-.2h-.26v-.28h.64v.16c0 .35-.23.61-.66.61-.46 0-.72-.28-.72-.7m1.66-.68h.93v.3h-.54v.24h.43v.27h-.43v.25h.57v.3H7.3zm1.25 0h.44l.43.77v-.77h.34v1.36h-.37l-.5-.85v.85h-.34zm1.82.3h-.35v-.3h1.1v.3h-.36v1.06h-.39zm1.91.38v-.01c0-.24-.12-.38-.3-.38-.2 0-.32.14-.32.38v.02c0 .24.13.38.31.38.2 0 .31-.14.31-.39m-1.02 0c0-.42.3-.7.71-.7.42 0 .72.26.72.68v.02c0 .42-.29.7-.72.7-.44 0-.71-.28-.71-.7m2.06.62l.47-.5c.14-.14.23-.26.23-.37 0-.1-.05-.15-.15-.15-.1 0-.15.06-.17.22h-.35c.01-.34.22-.51.54-.51.34 0 .51.17.51.42 0 .2-.1.33-.25.47l-.2.19h.46v.29H13.3zM3.03 21.52v-.02c0-.42.3-.69.7-.69.34 0 .59.16.62.52h-.4c-.02-.14-.1-.21-.23-.21-.17 0-.28.13-.28.38v.02c0 .24.1.38.29.38.14 0 .23-.08.25-.22h.39c-.03.35-.28.53-.64.53-.47 0-.7-.28-.7-.7m1.6-.68h.93v.3h-.54v.23h.43v.28h-.43v.25h.57v.3h-.96zm1.76.62c.13 0 .2-.05.2-.17 0-.11-.07-.16-.2-.16h-.12v.33zm-.51-.62h.53c.36 0 .55.15.55.43 0 .2-.1.31-.24.37l.32.56h-.4l-.28-.49h-.1v.49h-.38zm1.63.3h-.35v-.3h1.1v.3H7.9v1.06h-.39zm1.01-.3h.4v1.36h-.4zm.76 0h.91v.3h-.52v.3h.42v.28h-.42v.48h-.4zm1.2 0h.39v1.36h-.4zm.75 0h.93v.3h-.55v.23h.44v.28h-.44v.25h.58v.3h-.96zm1.72 1.06c.24 0 .34-.13.34-.38v-.01c0-.26-.1-.37-.34-.37h-.08v.76zm-.47-1.06h.49c.48 0 .72.24.72.66v.02c0 .42-.24.68-.72.68h-.5zM2.6 24.62c.16 0 .26-.09.26-.27v-.11c0-.2-.1-.26-.26-.26h-.17v.64zm-.46-.87h.46c.35 0 .54.15.54.49v.1c0 .34-.2.5-.54.5h-.17v.77h-.3zm1.32.5h.27v.2c.07-.14.16-.21.33-.22v.27c-.2 0-.33.06-.33.27v.83h-.27zm1.56.89v-.42c0-.19-.08-.28-.22-.28s-.22.1-.22.28v.42c0 .18.07.27.22.27.14 0 .22-.1.22-.27m-.7 0v-.41c0-.33.2-.5.48-.5.29 0 .49.17.49.5v.4c0 .33-.2.5-.5.5-.28 0-.48-.18-.48-.5m1.38-.67h-.14v-.21h.14v-.23c0-.24.13-.37.37-.37l.14.01v.21h-.09c-.1 0-.15.05-.15.15v.23h.23v.2h-.23v1.16h-.27zm1 .33h.4v-.08c0-.2-.08-.28-.2-.28-.13 0-.2.09-.2.29zm-.28.34v-.4c0-.33.2-.5.48-.5.27 0 .46.14.46.49v.27h-.67v.15c0 .2.07.28.22.28.12 0 .19-.07.2-.2h.25c-.01.28-.18.4-.45.4-.3 0-.49-.16-.49-.5m1.24.1h.26c0 .14.06.2.19.2.1 0 .15-.05.15-.16 0-.12-.07-.17-.23-.24-.23-.1-.34-.2-.34-.43 0-.24.18-.36.4-.36.24 0 .4.1.41.39h-.25c0-.13-.06-.2-.16-.2s-.15.06-.15.15c0 .11.06.15.22.23.21.1.37.19.37.43 0 .25-.14.4-.42.4-.28 0-.45-.15-.45-.42m1.15 0h.26c0 .15.06.21.18.21.11 0 .16-.05.16-.16 0-.12-.08-.17-.23-.24-.23-.1-.35-.2-.35-.43 0-.24.18-.36.4-.36.24 0 .41.1.41.39h-.25c0-.13-.06-.2-.16-.2s-.15.06-.15.15c0 .11.06.15.23.23.2.1.36.19.36.43 0 .25-.14.4-.42.4-.28 0-.44-.15-.44-.42m1.2-.96h.27v1.36H10zm-.03-.34c0-.1.07-.16.16-.16.1 0 .17.07.17.15a.16.16 0 0 1-.17.17.16.16 0 0 1-.16-.16m1.36 1.23v-.42c0-.19-.08-.28-.22-.28-.15 0-.22.1-.22.28v.42c0 .18.07.27.22.27.14 0 .22-.1.22-.27m-.71 0v-.41c0-.33.2-.5.48-.5.3 0 .5.17.5.5v.4c0 .33-.2.5-.5.5-.28 0-.48-.18-.48-.5m1.32-.88h.27v.17c.05-.1.16-.2.31-.2.2 0 .33.13.33.4v.99h-.27v-.96c0-.14-.05-.2-.16-.2-.12 0-.2.07-.2.22v.94h-.28zm1.87.97V25h-.14c-.15 0-.22.05-.22.2v.04c0 .13.05.2.16.2.12 0 .2-.07.2-.22m-.63.03v-.04c0-.29.18-.4.48-.4h.15v-.15c0-.15-.04-.22-.16-.22-.11 0-.16.06-.17.18h-.26c0-.27.18-.4.44-.4.27 0 .42.14.42.43v.96h-.26v-.14c-.05.1-.13.16-.29.16-.2 0-.35-.13-.35-.37m1.28-1.6h.28v1.94h-.28zM3.71 26.34h.87v.23H4v.6h.47v.23H4v.8h-.29zm1.14.5h.27v.2c.06-.14.16-.2.33-.21v.26c-.21.01-.33.07-.33.27v.84h-.27zm1.55.9v-.43c0-.18-.07-.28-.22-.28-.14 0-.21.1-.21.28v.42c0 .19.07.28.22.28.14 0 .21-.1.21-.28m-.7 0v-.41c0-.33.2-.5.48-.5.3 0 .5.17.5.5v.4c0 .33-.2.5-.5.5-.28 0-.48-.17-.48-.5m1.32-.88h.27v.18c.05-.11.16-.2.31-.2.2 0 .33.13.33.4v.98h-.27v-.96c0-.13-.05-.2-.16-.2-.13 0-.2.08-.2.22v.94h-.28zm1.61-.28v.28h.23v.21h-.23v.8c0 .1.04.14.13.14l.1-.01v.21a.44.44 0 0 1-.15.02c-.24 0-.35-.12-.35-.34v-.82h-.14v-.2h.14v-.29zm1.07-.22h.87v.23h-.58v.54h.47v.23h-.47v.63h.61v.23h-.9zm1.24.5h.27v.18c.05-.11.16-.2.31-.2.2 0 .33.13.33.4v.98h-.27v-.96c0-.13-.05-.2-.16-.2-.13 0-.21.08-.21.22v.94h-.28zm1.96.48c0-.2-.08-.29-.23-.29-.13 0-.2.09-.2.27v.45c0 .19.07.26.2.26.14 0 .23-.1.23-.29zm.27.88h-.27v-.17a.34.34 0 0 1-.32.2c-.23 0-.38-.16-.38-.48v-.45c0-.32.16-.48.4-.48.16 0 .25.07.3.18v-.75h.27zm-9.54.97v1.4h.18c.26 0 .36-.13.36-.4v-.6c0-.28-.09-.4-.36-.4zm.19-.23c.43 0 .65.2.65.62v.6c0 .42-.2.63-.65.63h-.48v-1.85zm1.26 1.04h.4v-.08c0-.2-.07-.28-.2-.28-.12 0-.2.08-.2.28zm-.27.34v-.4c0-.33.2-.5.48-.5.27 0 .46.14.46.48v.28h-.67v.15c0 .19.07.28.22.28.12 0 .18-.07.2-.2h.25c-.01.28-.18.4-.46.4-.3 0-.48-.17-.48-.5m1.17-.87h.28l.23 1.04.23-1.04h.26l-.34 1.36h-.32zm1.49.54h.4v-.08c0-.2-.07-.28-.2-.28-.12 0-.2.08-.2.28zm-.27.34v-.4c0-.33.19-.5.47-.5.28 0 .47.14.47.48v.28h-.67v.15c0 .19.06.28.22.28.12 0 .18-.07.2-.2h.25c-.01.28-.18.4-.46.4-.3 0-.48-.17-.48-.5m1.29-1.47h.27v1.96H8.5zm1.33 1.48v-.41c0-.19-.07-.28-.22-.28-.14 0-.21.09-.21.28v.42c0 .18.07.27.21.27.15 0 .22-.1.22-.28m-.7 0v-.4c0-.33.2-.5.48-.5.29 0 .5.17.5.49v.4c0 .33-.21.5-.5.5-.29 0-.48-.17-.48-.49m1.81.28c.14 0 .2-.08.2-.26v-.46c0-.18-.07-.25-.2-.25-.14 0-.22.1-.22.29v.4c0 .19.07.29.22.29m-.22-1.17v.16c.05-.1.16-.18.32-.18.23 0 .39.15.39.46v.46c0 .32-.16.47-.4.47-.16 0-.26-.07-.31-.17v.6h-.28v-1.8zm1.29.54h.4v-.08c0-.2-.07-.28-.2-.28-.12 0-.2.08-.2.28zm-.27.34v-.4c0-.33.2-.5.47-.5.28 0 .47.14.47.48v.28H12v.15c0 .19.07.28.22.28.12 0 .18-.07.2-.2h.25c-.01.28-.18.4-.46.4-.3 0-.48-.17-.48-.5m1.28-.87h.28v.2c.06-.15.16-.21.33-.22v.27c-.22 0-.33.06-.33.26v.84H13z"/>
</svg>