<svg xmlns="http://www.w3.org/2000/svg" viewBox="0 0 36.05 70.29">
  <path fill="#316094" d="M36.05 70.3V10.4L18.02 0 0 10.4v59.9z"/>
  <path d="M36.05 70.3V31.03l-18.03 10.4v28.85z" opacity=".2"/>
  <path d="M0 70.3V31.03l18.02 10.4v28.85z" opacity=".1"/>
  <path fill="#fff" d="M5 28.52v-15l13.01-7.5L31 13.5v15l-3.71 2.14V15.66l-9.3-5.36-9.28 5.36.02 15z"/>
  <path fill="#fff" d="M12.43 32.8v-15l3.7-2.14v15L18 31.74l1.86-1.07v-15l3.7 2.15v15L18 36zM7 39.93h1.09l.56 1.55.55-1.55h1.07v2.9h-.83v-1.8l-.71 1.8h-.28l-.7-1.8v1.8h-.75zm4.9 1.8h.64l-.32-1.13zm-.16-1.8h1.08l.92 2.9h-.88l-.16-.53h-.96l-.16.54h-.78z"/>
  <g>
    <path fill="#fff" d="M13.97 41.4v-.03c0-.89.65-1.49 1.53-1.49.68 0 1.3.32 1.35 1.07h-.82c-.05-.27-.22-.41-.53-.41-.41 0-.66.32-.66.84v.03c0 .47.18.84.68.84.4 0 .56-.2.58-.44h-.55v-.58h1.37v.36c0 .74-.49 1.3-1.43 1.3-.98 0-1.52-.62-1.52-1.5m3.56-1.46h2v.64h-1.17v.5h.94v.6h-.94v.52h1.24v.65h-2.07zm2.69 0h.94l.93 1.63v-1.63h.73v2.9h-.8l-1.07-1.82v1.83h-.73zm3.92.64h-.75v-.64h2.34v.64h-.75v2.26h-.84zm4.1.82v-.03c0-.52-.25-.82-.66-.82-.41 0-.67.3-.67.82v.03c0 .53.27.84.67.84.41 0 .67-.32.67-.84m-2.21 0v-.02c0-.89.67-1.48 1.54-1.48.88 0 1.54.55 1.54 1.46v.03c0 .9-.62 1.5-1.56 1.5-.94 0-1.52-.6-1.52-1.48M6.5 46.28v-.03c0-.9.64-1.49 1.49-1.49.75 0 1.28.35 1.35 1.12h-.86c-.03-.3-.2-.46-.49-.46-.37 0-.61.3-.61.82v.03c0 .53.22.83.62.83.3 0 .5-.16.54-.48h.83c-.06.75-.6 1.14-1.35 1.14-1.02 0-1.52-.6-1.52-1.48m3.44-1.48h2.01v.65H10.8v.5h.93v.59h-.93v.53h1.24v.64H9.95zm3.8 1.33c.27 0 .41-.12.41-.35v-.02c0-.23-.14-.33-.41-.33h-.28v.7zm-1.1-1.32h1.13c.76 0 1.18.3 1.18.92v.01c0 .42-.21.65-.52.77l.7 1.2h-.88l-.6-1.04h-.19v1.04h-.83zm3.5.64h-.75v-.64h2.35v.64h-.76v2.26h-.83zm2.18-.65h.84v2.91h-.84zm1.62 0h1.96v.65H20.8v.62h.9v.61h-.9v1.03h-.84zm2.57 0h.85v2.91h-.85zm1.62 0h2.01v.65h-1.18v.5h.94v.59h-.94v.53h1.25v.64h-2.08zm3.72 2.27c.5 0 .72-.26.72-.8v-.03c0-.56-.22-.8-.72-.8h-.19v1.63zm-1.03-2.27h1.06c1.03 0 1.56.52 1.56 1.42v.04c0 .9-.54 1.45-1.57 1.45h-1.05v-2.9zM5.58 52.95c.37 0 .55-.19.55-.59v-.23c0-.42-.2-.56-.55-.56h-.35v1.38h.35zm-.98-1.87h.98c.76 0 1.17.33 1.17 1.04v.25c0 .71-.43 1.05-1.16 1.05h-.36v1.65H4.6zm2.84 1.07h.59v.44c.13-.32.34-.46.7-.47v.57c-.45.01-.7.14-.7.57v1.8h-.59zm3.35 1.91v-.9c0-.4-.16-.6-.47-.6-.3 0-.46.2-.46.6v.9c0 .4.15.6.46.6.31 0 .47-.2.47-.6m-1.52 0v-.88c0-.7.44-1.07 1.05-1.07.62 0 1.05.36 1.05 1.06v.88c0 .7-.43 1.07-1.06 1.07-.6 0-1.04-.38-1.04-1.06m2.97-1.46h-.3v-.45h.3v-.5c0-.5.28-.8.8-.8.13 0 .23.02.3.05v.44a.84.84 0 0 0-.2-.02c-.24 0-.32.12-.32.34v.5h.5v.44h-.5v2.47h-.58V52.6zm2.12.73h.89v-.19c0-.43-.17-.6-.43-.6-.28 0-.46.19-.46.62v.17zm-.57.72v-.87c0-.7.41-1.07 1.02-1.07.6 0 1 .31 1 1.05v.58h-1.44v.32c0 .42.14.61.47.61.26 0 .4-.15.44-.43h.54c-.04.6-.4.88-.99.88-.65 0-1.04-.37-1.04-1.07m2.67.17h.55c.02.32.13.46.4.46.24 0 .34-.12.34-.36 0-.25-.16-.35-.5-.5-.5-.24-.74-.46-.74-.94 0-.5.38-.77.86-.77.52 0 .88.23.89.83h-.55c0-.28-.13-.4-.34-.4-.2 0-.32.1-.32.3 0 .24.13.31.49.49.44.2.78.41.78.94s-.3.84-.9.84c-.61 0-.96-.3-.96-.89m2.46 0h.55c.02.32.13.46.4.46.24 0 .34-.12.34-.36 0-.25-.16-.35-.5-.5-.49-.24-.74-.46-.74-.94 0-.5.38-.77.86-.77.52 0 .88.23.89.83h-.55c0-.28-.13-.4-.34-.4-.2 0-.32.1-.32.3 0 .24.13.31.49.49.45.2.78.41.78.94s-.3.84-.9.84c-.61 0-.96-.3-.96-.89m2.59-2.07h.58v2.92h-.58zm-.06-.73c0-.2.14-.34.35-.34.2 0 .35.15.35.34 0 .2-.15.34-.35.34a.33.33 0 0 1-.35-.34m2.9 2.64v-.9c0-.4-.15-.6-.47-.6-.3 0-.46.2-.46.6v.9c0 .4.15.6.46.6.32 0 .47-.2.47-.6m-1.52 0v-.88c0-.7.44-1.07 1.05-1.07.62 0 1.06.36 1.06 1.06v.88c0 .7-.44 1.07-1.06 1.07-.62 0-1.05-.38-1.05-1.06m2.84-1.9h.59v.36c.1-.24.34-.41.68-.41.43 0 .7.26.7.85v2.1h-.58v-2.05c0-.3-.11-.43-.36-.43-.26 0-.44.16-.44.47v2.02h-.59v-2.92zm4.03 2.08v-.49h-.3c-.33 0-.48.12-.48.46v.08c0 .28.11.4.35.4.27 0 .43-.13.43-.45m-1.36.08v-.1c0-.62.4-.85 1.03-.85h.33v-.34c0-.3-.08-.47-.34-.47-.25 0-.36.13-.37.38h-.56c.02-.57.38-.83.94-.83.59 0 .92.28.92.9v2.06h-.58v-.28c-.1.18-.26.33-.6.33-.46 0-.77-.27-.77-.8m2.77-3.45h.59v4.2h-.6zm-19.07 8.46v-1.35c0-.87.52-1.37 1.26-1.37.65 0 1.15.32 1.18 1.16h-.62c-.03-.47-.2-.65-.57-.65-.4 0-.6.29-.6.85v1.36c0 .57.17.87.62.87.34 0 .59-.2.6-.72h.6c-.01.88-.51 1.23-1.2 1.23-.8 0-1.27-.51-1.27-1.38m3.19-2.87h.59v4.19h-.6zm2.86 3.18v-.9c0-.4-.16-.6-.47-.6-.3 0-.46.2-.46.6v.9c0 .4.15.6.46.6.31 0 .47-.21.47-.6m-1.52 0v-.88c0-.7.44-1.07 1.05-1.07.62 0 1.06.36 1.06 1.06v.87c0 .7-.44 1.07-1.06 1.07-.62 0-1.05-.37-1.05-1.06m4.79 1.02h-.58v-.36a.7.7 0 0 1-.67.4c-.43 0-.72-.26-.72-.84v-2.12h.59v2.07c0 .29.1.43.35.43.25 0 .45-.17.45-.47v-2.03h.58zm2.28-1.89c0-.41-.18-.62-.5-.62-.3 0-.44.18-.44.57v.98c0 .4.15.55.43.55.31 0 .5-.2.5-.62zm.57 1.89h-.58v-.37a.73.73 0 0 1-.68.42c-.5 0-.84-.34-.84-1.03v-.96c0-.68.35-1.02.88-1.02.33 0 .54.15.64.38v-1.61h.59v4.19zm-16.4 2.08v3h.37c.58 0 .78-.26.78-.84v-1.3c0-.59-.2-.86-.78-.86h-.37zm.4-.49c.93 0 1.4.43 1.4 1.33v1.32c0 .88-.45 1.34-1.39 1.34H7.18v-4H8.2zm2.7 2.24h.89v-.18c0-.44-.16-.6-.43-.6-.28 0-.45.19-.45.62v.16zm-.57.73v-.87c0-.7.42-1.07 1.02-1.07.6 0 1 .31 1 1.05v.58h-1.44v.32c0 .42.14.61.47.61.26 0 .4-.15.44-.44h.54c-.04.61-.4.89-.99.89-.65 0-1.04-.37-1.04-1.07m2.51-1.9h.62l.5 2.25.47-2.25h.57l-.72 2.92h-.7zm3.2 1.17h.89v-.18c0-.44-.17-.6-.44-.6s-.45.19-.45.62v.16zm-.57.73v-.87c0-.7.41-1.07 1.02-1.07.6 0 1 .31 1 1.05v.58h-1.44v.32c0 .42.14.61.47.61.26 0 .4-.15.44-.44h.54c-.04.61-.4.89-.99.89-.65 0-1.04-.37-1.04-1.07m2.77-3.18h.6v4.2h-.6zm2.87 3.19v-.9c0-.4-.16-.6-.47-.6-.3 0-.46.2-.46.6v.9c0 .4.15.6.46.6.3 0 .47-.2.47-.6m-1.52 0v-.88c0-.7.43-1.07 1.05-1.07.62 0 1.05.36 1.05 1.06v.87c0 .7-.43 1.08-1.06 1.08-.61 0-1.04-.38-1.04-1.07m3.9.61c.3 0 .46-.18.46-.57v-.97c0-.4-.17-.55-.45-.55-.3 0-.49.2-.49.6v.87c0 .41.17.62.49.62m-.48-2.5v.35c.11-.22.36-.4.69-.4.5 0 .83.33.83 1v.98c0 .68-.34 1.02-.87 1.02-.33 0-.55-.16-.65-.38v1.31h-.6v-3.9h.6zm2.77 1.16h.88v-.18c0-.44-.16-.6-.43-.6-.28 0-.45.19-.45.62v.16zm-.58.73v-.87c0-.7.42-1.07 1.03-1.07.6 0 1 .31 1 1.05v.58H25.8v.32c0 .42.15.61.47.61.27 0 .4-.15.44-.44h.54c-.03.61-.39.89-.98.89-.65 0-1.05-.37-1.05-1.07m2.76-1.9h.59v.44c.13-.32.35-.46.7-.47v.57c-.44.01-.7.14-.7.57v1.8h-.59z"/>
  </g>
</svg>