<svg xmlns="http://www.w3.org/2000/svg" viewBox="0 0 24.34 47.47">
  <path fill="#fff" d="M24.34 47.47V7.03L12.17 0 0 7.03v40.44z"/>
  <path fill="#636466" d="M21.68 40.27V8.67l-9.5-5.5-9.52 5.5v31.6z"/>
  <path fill="#828385" d="M12.17 25.04v15.23h9.51V19.56z"/>
  <path fill="#ccc" d="M12.17 25.04v15.23h9.51V19.56z"/>
  <path fill="#737476" d="M2.66 40.27h9.5l.01-15.23-9.51-5.48z"/>
  <path fill="#e5e5e5" d="M2.66 40.27h9.5l.01-15.23-9.51-5.48z"/>
  <path fill="#fff" d="M5.3 18.22v-7.91l6.87-3.96L19 10.3v7.92l-1.95 1.13v-7.9l-4.9-2.84-4.91 2.83.01 7.91z"/>
  <path fill="#fff" d="M9.22 20.49v-7.92l1.96-1.13v7.92l.98.56.98-.57v-7.9l1.96 1.12v7.92l-2.94 1.7zM5.37 24.24h.58l.29.82.3-.82h.56v1.54h-.44v-.96l-.38.96h-.14l-.37-.96v.96h-.4zM7.96 25.2h.34l-.17-.6zm-.09-.96h.57l.49 1.54h-.47l-.08-.29h-.5l-.09.29h-.41z"/>
  <g transform="matrix(.35278 0 0 -.35278 -21.62 67.43)">
    <path fill="#fff" d="M86.95 120.23v.05c0 1.32.98 2.22 2.29 2.22 1.02 0 1.94-.47 2.02-1.6h-1.23c-.06.4-.33.62-.79.62-.61 0-.98-.48-.98-1.26v-.05c0-.7.26-1.26 1.01-1.26.61 0 .84.31.87.66h-.82v.87h2.05v-.53c0-1.11-.73-1.95-2.13-1.95-1.48 0-2.29.92-2.29 2.23M92.27 122.43h3.01v-.96h-1.76v-.75h1.4v-.89h-1.4v-.79h1.86v-.96h-3.1zM96.3 122.43h1.4l1.4-2.45v2.45h1.09v-4.35h-1.2l-1.6 2.73v-2.73h-1.1zM102.16 121.47h-1.12v.96h3.5v-.96h-1.12v-3.4h-1.26zM108.31 120.24v.05c0 .77-.39 1.23-1 1.23-.62 0-1-.45-1-1.24v-.05c0-.79.4-1.24 1-1.24.62 0 1 .47 1 1.25m-3.3-.01v.05c0 1.32 1 2.21 2.3 2.21 1.33 0 2.3-.83 2.3-2.18v-.05c0-1.34-.91-2.26-2.32-2.26-1.4 0-2.28.92-2.28 2.23M111.65 118.25l1.52 1.62c.44.46.72.83.72 1.2 0 .29-.15.48-.46.48-.31 0-.5-.19-.56-.7h-1.13c.04 1.09.7 1.64 1.75 1.64 1.07 0 1.63-.57 1.63-1.38 0-.6-.33-1.04-.82-1.51l-.6-.6h1.45v-.92h-3.5zM78.57 112.93v.05c0 1.34.95 2.22 2.23 2.22 1.13 0 1.91-.52 2.02-1.67h-1.29c-.05.44-.3.68-.73.68-.56 0-.91-.43-.91-1.23v-.05c0-.78.33-1.23.93-1.23.44 0 .75.24.8.72h1.25c-.08-1.13-.9-1.71-2.03-1.71-1.52 0-2.27.89-2.27 2.22M83.72 115.13h3v-.96h-1.76v-.75h1.4v-.89h-1.4v-.79h1.86v-.96h-3.1zM89.39 113.15c.42 0 .62.17.62.53v.02c0 .36-.22.5-.62.5H89v-1.05zm-1.65 1.98h1.7c1.15 0 1.78-.46 1.78-1.38v-.02c0-.62-.33-.97-.79-1.15l1.04-1.8h-1.31l-.88 1.56h-.3v-1.56h-1.24zM93 114.17h-1.13v.96h3.51v-.96h-1.13v-3.39H93zM96.25 115.13h1.26v-4.35h-1.26zM98.67 115.13h2.94v-.96h-1.68v-.93h1.34v-.92h-1.34v-1.54h-1.26zM102.52 115.13h1.26v-4.35h-1.26zM104.94 115.13h3v-.96h-1.76v-.75h1.4v-.89h-1.4v-.79h1.87v-.96h-3.11zM110.5 111.74c.75 0 1.08.4 1.08 1.2v.05c0 .83-.33 1.18-1.09 1.18h-.27v-2.43zm-1.53 3.4h1.58c1.55 0 2.33-.78 2.33-2.13v-.05c0-1.36-.8-2.18-2.34-2.18h-1.57zM77.18 102.95c.54 0 .83.28.83.88v.34c0 .63-.3.85-.83.85h-.53v-2.07zm-1.48 2.8h1.48c1.14 0 1.75-.5 1.75-1.57v-.36c0-1.06-.65-1.57-1.73-1.57h-.55v-2.48h-.95zM79.96 104.14h.88v-.65c.2.47.51.68 1.06.7v-.86c-.68-.02-1.06-.2-1.06-.85v-2.7h-.88zM84.97 101.29v1.33c0 .61-.24.91-.7.91-.45 0-.7-.3-.7-.9v-1.34c0-.6.23-.9.7-.9.46 0 .7.31.7.9m-2.27 0v1.31c0 1.06.65 1.6 1.57 1.6s1.57-.53 1.57-1.58v-1.3c0-1.06-.65-1.61-1.58-1.61-.92 0-1.56.56-1.56 1.58M87.14 103.47h-.46v.67h.46v.75c0 .76.41 1.19 1.19 1.19.2 0 .36-.03.44-.06v-.67c-.05.02-.18.03-.29.03-.34 0-.48-.18-.48-.5v-.74h.75v-.67H88v-3.7h-.86zM90.32 102.39h1.31v.27c0 .65-.24.9-.64.9-.41 0-.67-.28-.67-.92zm-.87-1.09v1.3c0 1.05.62 1.6 1.53 1.6.89 0 1.5-.46 1.5-1.56v-.88h-2.16v-.48c0-.62.21-.9.7-.9.4 0 .6.22.66.65h.8c-.04-.91-.58-1.32-1.47-1.32-.97 0-1.56.55-1.56 1.6M93.45 101.04h.83c.02-.46.2-.68.59-.68.36 0 .51.18.51.54 0 .38-.24.52-.74.75-.74.35-1.12.68-1.12 1.4 0 .76.58 1.16 1.3 1.16.77 0 1.31-.34 1.32-1.25h-.82c0 .42-.19.6-.5.6s-.48-.16-.48-.46c0-.35.18-.46.72-.72.67-.31 1.17-.62 1.17-1.41 0-.8-.45-1.26-1.36-1.26-.9 0-1.42.46-1.42 1.33M97.13 101.04h.83c.02-.46.2-.68.59-.68.36 0 .51.18.51.54 0 .38-.24.52-.74.75-.74.35-1.12.68-1.12 1.4 0 .76.58 1.16 1.3 1.16.77 0 1.31-.34 1.32-1.25H99c0 .42-.19.6-.5.6s-.48-.16-.48-.46c0-.35.18-.46.72-.72.67-.31 1.17-.62 1.17-1.41 0-.8-.45-1.26-1.36-1.26-.9 0-1.42.46-1.42 1.33M101 104.14h.87v-4.37H101zm-.09 1.1c0 .29.22.51.52.51.3 0 .53-.22.53-.5a.5.5 0 0 0-.53-.52.5.5 0 0 0-.52.51M105.26 101.29v1.33c0 .61-.24.91-.7.91-.46 0-.7-.3-.7-.9v-1.34c0-.6.23-.9.7-.9.46 0 .7.31.7.9m-2.28 0v1.31c0 1.06.66 1.6 1.57 1.6.93 0 1.58-.53 1.58-1.58v-1.3c0-1.06-.65-1.61-1.58-1.61-.92 0-1.57.56-1.57 1.58M107.23 104.14h.88v-.55c.15.35.5.62 1 .62.66 0 1.07-.4 1.07-1.28v-3.16h-.87v3.09c0 .44-.17.64-.54.64-.39 0-.66-.24-.66-.7v-3.03h-.88zM113.26 101.01v.73h-.45c-.5 0-.72-.18-.72-.67v-.12c0-.42.17-.62.52-.62.4 0 .65.2.65.68m-2.04-.1v.14c0 .93.6 1.27 1.55 1.27h.49v.51c0 .46-.12.7-.52.7-.37 0-.53-.2-.54-.57h-.85c.03.85.58 1.25 1.42 1.25.87 0 1.36-.43 1.36-1.36v-3.08h-.86v.43c-.16-.28-.4-.5-.91-.5-.67 0-1.14.4-1.14 1.2M115.36 106.05h.89v-6.27h-.89zM80.77 97.4h2.78v-.74H81.7v-1.92h1.49V94h-1.49v-2.57h-.94zM84.42 95.8h.87v-.66c.2.48.52.69 1.06.7v-.85c-.67-.02-1.06-.21-1.06-.86v-2.7h-.87zM89.42 92.94v1.34c0 .6-.23.9-.7.9-.45 0-.69-.3-.69-.9v-1.34c0-.6.23-.9.7-.9.46 0 .7.32.7.9m-2.28 0v1.32c0 1.05.66 1.6 1.57 1.6.93 0 1.58-.54 1.58-1.58v-1.31c0-1.06-.65-1.6-1.58-1.6-.92 0-1.57.55-1.57 1.58M91.4 95.8h.88v-.56c.15.35.5.62 1 .62.66 0 1.07-.4 1.07-1.28v-3.15h-.87v3.08c0 .44-.17.64-.54.64-.39 0-.66-.24-.66-.7v-3.02h-.88zM96.6 96.69v-.9h.72v-.66h-.73v-2.57c0-.32.14-.46.41-.46.14 0 .27.01.34.04v-.68a1.42 1.42 0 0 0-.48-.06c-.8 0-1.14.38-1.14 1.1v2.63h-.45v.67h.45v.89zM100.03 97.4h2.79v-.74h-1.85v-1.73h1.5v-.72h-1.5v-2.04h1.97v-.74h-2.91zM104.01 95.8h.88v-.56c.15.35.5.62 1 .62.66 0 1.07-.4 1.07-1.28v-3.15h-.87v3.08c0 .44-.17.64-.54.64-.39 0-.66-.24-.66-.7v-3.02H104zM110.34 94.26c0 .62-.26.93-.74.93-.44 0-.66-.27-.66-.86v-1.46c0-.6.23-.83.64-.83.47 0 .76.3.76.93zm.87-2.83h-.88v.55a1.1 1.1 0 0 0-1.02-.62c-.76 0-1.25.5-1.25 1.53v1.43c0 1.02.52 1.54 1.3 1.54.5 0 .81-.23.97-.57v2.42h.88zM80.51 88.32v-4.5h.56c.86 0 1.16.4 1.16 1.28v1.95c0 .87-.28 1.27-1.16 1.27zm.6.73c1.4 0 2.09-.64 2.09-2V85.1c0-1.32-.66-2-2.07-2h-1.56v5.96zM85.16 85.7h1.32v.27c0 .65-.24.9-.64.9-.42 0-.68-.28-.68-.92zm-.87-1.09v1.3c0 1.05.63 1.6 1.54 1.6.88 0 1.5-.46 1.5-1.56v-.88h-2.17v-.48c0-.62.22-.9.7-.9.4 0 .61.22.66.65h.81c-.05-.91-.58-1.32-1.48-1.32-.96 0-1.56.55-1.56 1.6M88.06 87.45h.91l.75-3.37.72 3.37h.85l-1.09-4.37h-1.03zM92.85 85.7h1.31v.27c0 .65-.24.9-.64.9-.41 0-.67-.28-.67-.92zm-.87-1.09v1.3c0 1.05.62 1.6 1.53 1.6.89 0 1.5-.46 1.5-1.56v-.88h-2.16v-.48c0-.62.21-.9.7-.9.4 0 .6.22.66.65h.8c-.04-.91-.58-1.32-1.47-1.32-.97 0-1.56.55-1.56 1.6M96.13 89.36h.89v-6.28h-.89zM100.42 84.6v1.33c0 .61-.24.91-.7.91-.46 0-.7-.3-.7-.9v-1.35c0-.59.23-.89.7-.89.46 0 .7.31.7.9m-2.27 0v1.31c0 1.06.65 1.6 1.57 1.6s1.57-.54 1.57-1.58v-1.31c0-1.05-.65-1.6-1.58-1.6-.92 0-1.56.55-1.56 1.58M104 83.7c.44 0 .66.26.66.84v1.47c0 .6-.25.82-.66.82-.45 0-.73-.3-.73-.92v-1.3c0-.6.25-.92.73-.92m-.73 3.76v-.54c.18.34.54.6 1.04.6.75 0 1.24-.5 1.24-1.5v-1.46c0-1.02-.51-1.53-1.3-1.53-.49 0-.82.24-.98.57v-1.97h-.88v5.83zM107.43 85.7h1.31v.27c0 .65-.24.9-.64.9-.42 0-.67-.28-.67-.92zm-.87-1.09v1.3c0 1.05.62 1.6 1.53 1.6.89 0 1.5-.46 1.5-1.56v-.88h-2.16v-.48c0-.62.21-.9.7-.9.4 0 .6.22.66.65h.8c-.05-.91-.58-1.32-1.47-1.32-.97 0-1.56.55-1.56 1.6M110.69 87.45h.88v-.65c.2.47.51.68 1.06.7v-.86c-.68-.02-1.06-.2-1.06-.85v-2.7h-.88z"/>
  </g>
</svg>