<svg xmlns="http://www.w3.org/2000/svg" viewBox="0 0 18.26 35.61">
  <path fill="#8a1b55" d="M9.13 0L0 5.27v30.34h18.26V5.27z"/>
  <path fill="#010101" d="M18.26 15.73l-9.13 5.26v14.62h9.13z" opacity=".2"/>
  <path fill="#010101" d="M0 15.73V35.6h9.13V21z" opacity=".1"/>
  <path fill="#fff" d="M2.54 14.45v-7.6l6.59-3.8 6.57 3.8v7.6l-1.88 1.08v-7.6l-4.7-2.71L4.4 7.94v7.6z"/>
  <path fill="#fff" d="M6.3 16.62v-7.6l1.88-1.08v7.6l.94.54.94-.55v-7.6l1.88 1.1v7.59l-2.82 1.63zm-3.7 3.6h.55l.29.8.28-.8h.54v1.48h-.42v-.91l-.36.91h-.14l-.36-.91v.91H2.6zm2.49.92h.32l-.16-.57zM5 20.23h.55l.47 1.47h-.45l-.08-.27H5l-.07.27h-.4z"/>
  <path fill="#fff" d="M6.14 20.97v-.01c0-.45.33-.75.77-.75.35 0 .66.15.69.54h-.42c-.02-.14-.11-.21-.27-.21-.2 0-.33.16-.33.42v.02c0 .24.09.43.34.43.21 0 .29-.11.3-.23h-.28v-.3h.7v.19c0 .37-.25.66-.73.66-.5 0-.77-.31-.77-.76m1.8-.74h1.02v.32h-.6v.26h.48v.3h-.48v.27H9v.32H7.94zm1.36 0h.48l.47.83v-.83h.37v1.47h-.4l-.54-.92v.92H9.3zm1.99.32h-.38v-.32h1.19v.32h-.39v1.15h-.42zm2.08.42v-.02c0-.26-.13-.41-.34-.41-.2 0-.33.15-.33.42v.01c0 .27.13.43.34.43.2 0 .33-.17.33-.43m-1.12 0v-.01c0-.45.34-.75.78-.75.45 0 .78.28.78.74v.01c0 .46-.3.77-.78.77-.48 0-.78-.31-.78-.76m2.26.67l.51-.54c.15-.16.24-.29.24-.41 0-.1-.05-.16-.15-.16-.1 0-.17.06-.2.23h-.38c.02-.36.24-.55.6-.55s.55.2.55.46c0 .2-.11.36-.28.52l-.2.2h.49v.31h-1.18zM3.3 23.44v-.01c0-.45.32-.75.75-.75.39 0 .65.18.69.56H4.3c-.01-.15-.1-.23-.25-.23-.19 0-.3.15-.3.42v.01c0 .27.1.42.31.42.15 0 .25-.08.27-.24h.42c-.02.38-.3.58-.68.58-.52 0-.77-.3-.77-.75m1.74-.75h1.02v.33h-.6v.25h.48v.3h-.48v.27h.63v.32H5.04zm1.92.67c.15 0 .22-.06.22-.18s-.08-.17-.22-.17h-.13v.35zm-.55-.67h.57c.39 0 .6.16.6.47 0 .22-.1.33-.26.4l.35.6h-.45l-.3-.52h-.1v.52h-.41zm1.78.33H7.8v-.33H9v.33H8.6v1.14H8.2zm1.1-.33h.42v1.47H9.3zm.82 0h1v.33h-.58v.31H11v.31h-.46v.52h-.42zm1.3 0h.43v1.47h-.43zm.82 0h1.02v.33h-.6v.25h.48v.3h-.48v.27h.63v.32h-1.05zm1.89 1.15c.25 0 .36-.13.36-.4v-.02c0-.28-.11-.4-.37-.4h-.1v.82zm-.52-1.15h.53c.52 0 .79.26.79.72v.02c0 .46-.27.73-.8.73h-.52zM3.4 30.73v-.25c.04.02.08.03.17.03.13 0 .22-.06.22-.25v-1.53h.31v1.54c0 .36-.2.5-.48.5a.47.47 0 0 1-.23-.04m1.76-.4v-.24H5c-.17 0-.25.06-.25.23v.04c0 .14.06.2.18.2.14 0 .22-.06.22-.22m-.7.03v-.05c0-.31.21-.43.53-.43h.17v-.17c0-.15-.04-.24-.18-.24-.12 0-.17.07-.18.2H4.5c.01-.3.2-.43.48-.43.3 0 .47.15.47.46v1.05h-.3v-.15c-.05.1-.13.17-.3.17-.23 0-.4-.14-.4-.4m1.28-1.1h.3l.26 1.14.24-1.14h.3l-.38 1.48H6.1zm2.02 1.06v-.25h-.16c-.16 0-.24.06-.24.23v.04c0 .14.06.2.18.2.13 0 .22-.06.22-.22m-.7.03v-.05c0-.31.2-.43.53-.43h.17v-.17c0-.15-.04-.24-.18-.24-.12 0-.18.07-.18.2H7.1c0-.3.2-.43.48-.43.3 0 .46.15.46.46v1.05h-.3v-.15c-.04.1-.12.17-.3.17-.23 0-.38-.14-.38-.4m1.35-.19h.3c.01.25.09.35.28.35.14 0 .23-.1.23-.29 0-.22-.1-.29-.33-.41-.3-.15-.45-.3-.45-.62s.2-.51.52-.51c.33 0 .54.16.54.53h-.3c0-.22-.1-.28-.24-.28-.14 0-.21.08-.21.23 0 .18.07.25.3.37.3.15.49.28.49.66 0 .37-.22.57-.55.57-.37 0-.58-.2-.58-.6m1.48.05v-.44c0-.37.23-.55.52-.55.26 0 .48.12.5.48h-.29c0-.2-.1-.24-.2-.24-.15 0-.23.08-.23.3v.46c0 .22.08.3.23.3.12 0 .22-.07.22-.28h.27c0 .36-.2.51-.5.51s-.52-.16-.52-.54m1.37-.96h.3v.22c.06-.16.17-.24.35-.24v.3c-.23 0-.36.06-.36.28v.92h-.3zm1 0h.29v1.48h-.3zm-.04-.38c0-.1.08-.17.18-.17.1 0 .18.08.18.17 0 .1-.08.17-.18.17a.17.17 0 0 1-.18-.17m1.28 1.65c.15 0 .23-.09.23-.29v-.5c0-.2-.09-.27-.23-.27-.15 0-.25.1-.25.3v.45c0 .2.09.31.25.31m-.25-1.27v.18c.06-.12.19-.2.35-.2.26 0 .43.16.43.5v.5c0 .34-.18.52-.44.52-.17 0-.28-.08-.34-.2v.67h-.3v-1.97zm1.51-.3v.3h.25v.22h-.25v.87c0 .11.05.16.14.16l.11-.01v.23a.49.49 0 0 1-.16.02c-.27 0-.39-.13-.39-.38v-.89h-.15v-.22h.15v-.3zM2.83 26.85c.19 0 .28-.1.28-.3v-.12c0-.21-.1-.28-.28-.28h-.18v.7zm-.5-.95h.5c.39 0 .6.16.6.53v.12c0 .36-.22.53-.59.53h-.19v.84h-.32zm1.44.54h.3v.22c.05-.15.2-.25.36-.23v.29c-.23 0-.36.07-.36.28v.92h-.3zm1.7.97v-.46c0-.2-.08-.3-.23-.3-.16 0-.24.1-.24.3v.45c0 .2.08.3.24.3.15 0 .23-.1.23-.29zm-.77 0v-.45c0-.36.22-.54.54-.54a.5.5 0 0 1 .53.53v.45a.5.5 0 0 1-.45.54.5.5 0 0 1-.09 0 .5.5 0 0 1-.53-.53m1.5-.74h-.14v-.23h.15v-.25a.36.36 0 0 1 .32-.4.37.37 0 0 1 .09 0l.15.01v.23a.43.43 0 0 0-.1-.01c-.12 0-.16.06-.16.17v.25h.25v.23H6.5v1.26h-.3zm1.08.37h.45v-.1c0-.22-.08-.3-.22-.3-.13 0-.22.1-.22.31zM7 27.4v-.44c0-.36.21-.54.52-.54.3 0 .5.15.5.53v.3h-.73v.16c0 .22.08.31.24.31.14 0 .2-.07.23-.22h.27c-.01.3-.2.45-.5.45-.33 0-.53-.2-.53-.55m1.36.1h.28c0 .15.06.22.2.22.13 0 .17-.06.17-.18 0-.13-.08-.18-.25-.26-.25-.11-.38-.23-.38-.47 0-.25.2-.4.44-.4.26 0 .44.12.45.43h-.28c0-.14-.06-.2-.17-.2a.14.14 0 0 0-.16.12.15.15 0 0 0 0 .03c0 .12.06.16.24.24.23.11.4.21.4.48s-.15.43-.46.43c-.3 0-.48-.16-.48-.45m1.24 0h.29c0 .16.06.23.2.23.13 0 .17-.06.17-.18 0-.13-.08-.18-.25-.26-.25-.11-.38-.23-.38-.47 0-.25.2-.4.44-.4.26 0 .44.12.45.43h-.28c0-.14-.07-.2-.18-.2a.14.14 0 0 0-.16.12.14.14 0 0 0 0 .03c0 .12.07.16.25.24.23.11.4.21.4.48s-.16.43-.46.43c-.3 0-.49-.16-.49-.45m1.31-1.05h.3v1.48h-.3zm-.03-.37c0-.1.08-.17.17-.17h.01c.1 0 .18.07.18.17a.17.17 0 0 1-.17.17h-.01a.17.17 0 0 1-.18-.16v-.01m1.47 1.34v-.46c0-.2-.07-.3-.23-.3s-.23.1-.23.3v.46c0 .2.07.3.23.3s.23-.1.23-.3zm-.76 0v-.45c0-.36.22-.54.53-.54a.5.5 0 0 1 .53.53v.45a.53.53 0 0 1-1.06 0zm1.44-.97h.3v.19c.06-.13.2-.22.34-.21.22 0 .36.14.36.43v1.07h-.3V26.9c0-.15-.05-.22-.18-.22a.21.21 0 0 0-.23.2.2.2 0 0 0 0 .04v1.02h-.3zm2.03 1.06v-.25h-.15c-.16 0-.24.07-.24.23v.05c0 .14.06.2.18.2a.2.2 0 0 0 .22-.23zm-.68.04v-.05c0-.32.2-.43.52-.43h.17v-.17c0-.16-.04-.24-.18-.24-.14 0-.18.07-.18.2h-.29c.01-.3.2-.43.48-.43.28 0 .46.14.46.46v1.04h-.3v-.15a.31.31 0 0 1-.3.17c-.23 0-.38-.13-.38-.4m1.4-1.75h.3v2.13h-.3zm-11.8 6.01v1.52h.18c.3 0 .4-.13.4-.43v-.66c0-.3-.1-.43-.4-.43zm.2-.25c.47 0 .7.22.7.68v.66c0 .45-.22.69-.7.69h-.53v-2.03zm1.37 1.14h.44v-.1c0-.21-.08-.3-.21-.3-.14 0-.23.1-.23.31zm-.3.37v-.44c0-.36.22-.55.52-.55.31 0 .51.16.51.53v.3h-.73v.16c0 .21.07.31.24.31.13 0 .2-.07.22-.22h.27c-.01.3-.2.45-.5.45-.33 0-.53-.19-.53-.54m1.28-.97h.3l.26 1.15.25-1.15h.28l-.36 1.49h-.36zm1.62.6h.45v-.1c0-.21-.08-.3-.22-.3s-.23.1-.23.31zm-.3.37v-.44c0-.36.22-.55.53-.55.3 0 .5.16.5.53v.3h-.73v.16c0 .21.07.31.24.31.13 0 .2-.07.23-.22h.27c-.01.3-.2.45-.5.45-.33 0-.53-.19-.53-.54m1.4-1.61h.3v2.13h-.3zm1.46 1.61v-.46c0-.2-.08-.3-.24-.3-.16 0-.24.1-.24.3v.46c0 .2.08.3.24.3.16 0 .24-.1.24-.3zm-.77 0v-.44c0-.36.22-.55.53-.55a.5.5 0 0 1 .53.54v.44a.53.53 0 1 1-1.06 0zm1.98.3c.15 0 .23-.08.23-.28v-.5c0-.2-.09-.27-.23-.27-.15 0-.25.1-.25.3v.44c0 .21.09.32.25.32zm-.25-1.27v.19c.07-.13.2-.21.35-.2.26 0 .42.16.42.5v.5c0 .34-.17.52-.43.52a.35.35 0 0 1-.34-.2v.67h-.3V32.1zm1.42.6h.44v-.1c0-.21-.08-.3-.22-.3-.13 0-.22.1-.22.31zm-.3.37v-.44c0-.36.21-.55.52-.55.3 0 .51.16.51.53v.3h-.73v.16c0 .21.07.31.23.31.14 0 .21-.07.23-.22h.27c-.02.3-.2.45-.5.45-.33 0-.53-.19-.53-.54m1.4-.97h.3v.23c.04-.15.2-.25.35-.23v.29c-.23 0-.36.07-.36.28v.92h-.3z"/>
</svg>