<svg xmlns="http://www.w3.org/2000/svg" viewBox="0 0 59.6207 116.2597">
  <path fill="#fff" d="M59.6207 116.2597v-99.049L29.8107 0 0 17.2106v99.049z"/>
  <path fill="#316094" d="M53.1042 98.6255v-77.399L29.81 7.776 6.5157 21.2265v77.399z"/>
  <g  transform="matrix(.86403 0 0 -.86403 -52.9543 165.161)">
    <g opacity=".2">
      <path d="M122.7485 77.0059v58.709l-26.96-15.539.003-43.17z"/>
    </g>
    <g opacity=".1">
      <path d="M68.8281 77.0059v58.709l26.96-15.539-.003-43.17z"/>
    </g>
  </g>
  <path fill="#fff" d="M12.988 44.632V25.25l16.807-9.7048 16.7778 9.6884V44.632L41.774 47.395V28.0193l-12.0109-6.933-12.0083 6.933.032 19.381z"/>
  <path fill="#fff" d="M22.5826 50.1697l-.006-19.3784 4.7962-2.7719V47.41l2.408 1.3799 2.3994-1.3894v-19.381l4.7954 2.7718v19.3784l-7.1974 4.156zM15.5535 59.3804h1.404l.719 2.0028.7188-2.0028h1.3773v3.7594h-1.0714v-2.338l-.9202 2.338h-.3577l-.909-2.338v2.338h-.9608zM21.884 61.6983h.8242l-.4104-1.4446zm-.21-2.3182h1.3919l1.194 3.7594h-1.1413l-.2013-.699h-1.246l-.2013.699h-1.0048z"/>
  <g transform="matrix(.86403 0 0 -.86403 -52.9543 165.161)">
    <path fill="#fff" d="M89.7256 120.2266v.047c0 1.324.974 2.221 2.282 2.221 1.028 0 1.941-.468 2.025-1.601h-1.233c-.061.408-.324.62-.786.62-.613 0-.984-.475-.984-1.26v-.048c0-.704.263-1.253 1.014-1.253.611 0 .84.31.863.657h-.815v.87h2.042v-.536c0-1.109-.724-1.942-2.13-1.942-1.476.004-2.278.92-2.278 2.225M95.0435 122.4268h3.006v-.96h-1.762v-.748h1.405v-.89h-1.405v-.792h1.86v-.961h-3.104zM99.0708 122.4268h1.405l1.392-2.449v2.449h1.089v-4.351h-1.203l-1.588 2.731v-2.731h-1.095zM104.9346 121.4668h-1.125v.96h3.504v-.96h-1.125v-3.387h-1.254zM111.0815 120.2363v.048c0 .771-.391 1.229-1.004 1.229-.614 0-.998-.444-.998-1.233v-.047c0-.792.401-1.247 1.004-1.247.617-.003.998.472.998 1.25m-3.303-.01v.047c0 1.324.998 2.215 2.299 2.215 1.324 0 2.305-.833 2.305-2.185v-.046c0-1.338-.92-2.251-2.325-2.251-1.406 0-2.279.913-2.279 2.22M78.5708 112.9268v.048c0 1.338.95 2.221 2.221 2.221 1.132 0 1.917-.523 2.018-1.672h-1.283c-.048.445-.294.687-.732.687-.559 0-.913-.438-.913-1.23v-.047c0-.785.334-1.23.93-1.23.438 0 .748.233.809.711h1.24c-.084-1.126-.9-1.709-2.025-1.709-1.517 0-2.265.89-2.265 2.221M83.7168 115.1309h3.006v-.96h-1.762v-.748h1.405v-.887h-1.405v-.792h1.86v-.961h-3.104zM89.3853 113.1465c.421 0 .627.175.627.528v.025c0 .353-.219.491-.62.491h-.411v-1.044zm-1.645 1.984h1.702c1.139 0 1.77-.462 1.77-1.381v-.024c0-.62-.327-.967-.785-1.142l1.041-1.8h-1.314l-.884 1.557h-.289v-1.557h-1.241zM92.9946 114.167h-1.125v.961h3.504v-.961h-1.126v-3.387h-1.253zM96.25 115.131h1.26v-4.351h-1.26zM98.6699 115.1309h2.938v-.967h-1.685v-.924h1.345v-.92h-1.345v-1.54h-1.253zM102.518 115.131h1.261v-4.351h-1.261zM104.938 115.1309h3.006v-.96h-1.762v-.748h1.405v-.887h-1.405v-.792h1.86v-.961h-3.104zM110.5054 111.7412c.741 0 1.072.391 1.072 1.199v.047c0 .829-.327 1.18-1.082 1.18h-.273v-2.426zm-1.54 3.39h1.581c1.543 0 2.328-.772 2.328-2.123v-.047c0-1.359-.802-2.178-2.335-2.178h-1.577v4.348zM77.1787 102.9453c.543 0 .826.282.826.883v.34c0 .627-.293.842-.826.842h-.532v-2.069h.532zm-1.476 2.797h1.476c1.136 0 1.752-.485 1.752-1.561v-.36c0-1.068-.65-1.57-1.735-1.57h-.549v-2.481h-.944zM79.959 104.1416h.876v-.65c.199.474.52.683 1.062.694v-.854c-.677-.016-1.062-.209-1.062-.852v-2.702h-.876zM84.9673 101.2871v1.334c0 .61-.233.91-.701.91-.452 0-.695-.3-.695-.899v-1.345c0-.594.227-.894.695-.894.465 0 .701.307.701.894m-2.271.007v1.31c0 1.052.65 1.601 1.57 1.601.927 0 1.577-.542 1.577-1.587v-1.311c0-1.051-.65-1.601-1.587-1.601-.917.004-1.56.56-1.56 1.588M87.1338 103.4707h-.458v.667h.458v.752c0 .758.418 1.185 1.193 1.185.209 0 .357-.023.442-.056v-.667c-.051.016-.182.033-.294.033-.343 0-.475-.182-.475-.509v-.734h.742v-.668h-.742v-3.696h-.869v3.693zM90.3154 102.3857h1.317v.276c0 .651-.242.9-.643.9-.418 0-.677-.283-.677-.927v-.249zm-.866-1.082v1.301c0 1.045.627 1.6 1.536 1.6.887 0 1.504-.467 1.504-1.57v-.876h-2.171v-.476c0-.626.216-.909.701-.909.401 0 .61.226.661.651h.809c-.051-.91-.583-1.319-1.476-1.319-.974.004-1.564.553-1.564 1.598M93.4526 101.0439h.826c.017-.468.192-.684.583-.684.367 0 .519.182.519.542 0 .374-.243.52-.741.752-.742.344-1.119.678-1.119 1.396 0 .758.576 1.159 1.294 1.159.775 0 1.317-.344 1.327-1.244h-.818c0 .418-.192.594-.509.594-.31 0-.475-.16-.475-.459 0-.344.181-.458.724-.718.667-.31 1.17-.616 1.17-1.412 0-.792-.452-1.26-1.362-1.26-.9 0-1.419.465-1.419 1.334M97.1328 101.0439h.826c.017-.468.192-.684.583-.684.367 0 .519.182.519.542 0 .374-.243.52-.741.752-.742.344-1.12.678-1.12 1.396 0 .758.577 1.159 1.295 1.159.775 0 1.317-.344 1.327-1.244h-.818c0 .418-.193.594-.509.594-.31 0-.476-.16-.476-.459 0-.344.182-.458.725-.718.667-.31 1.169-.616 1.169-1.412 0-.792-.451-1.26-1.361-1.26-.9 0-1.419.465-1.419 1.334M100.999 104.142h.869v-4.364h-.869zm-.085 1.098c0 .283.216.509.519.509.294 0 .526-.226.526-.509 0-.294-.226-.509-.526-.509-.31 0-.519.219-.519.509M105.2549 101.2871v1.334c0 .61-.232.91-.701.91-.452 0-.691-.3-.691-.899v-1.345c0-.594.226-.894.691-.894.469 0 .701.307.701.894m-2.271.007v1.31c0 1.052.65 1.601 1.57 1.601.927 0 1.577-.542 1.577-1.587v-1.311c0-1.051-.65-1.601-1.587-1.601-.917.004-1.56.56-1.56 1.588M107.2329 104.1416h.876v-.55c.152.351.502.617 1.011.617.651 0 1.058-.401 1.058-1.277v-3.154h-.869v3.08c0 .441-.168.643-.542.643-.385 0-.661-.242-.661-.701v-3.019h-.876v4.361zM113.2588 101.0107v.734h-.452c-.492 0-.717-.181-.717-.677v-.118c0-.424.168-.617.519-.617.407 0 .65.202.65.678m-2.036-.108v.152c0 .927.594 1.267 1.544 1.267h.492v.508c0 .459-.118.708-.519.708-.367 0-.526-.209-.543-.583h-.842c.023.853.576 1.25 1.412 1.25.876 0 1.368-.424 1.368-1.361v-3.07h-.866v.425c-.158-.277-.391-.493-.91-.493-.671.004-1.136.402-1.136 1.197M115.361 106.052h.883v-6.274h-.883zM86.8408 93.3975v2.019c0 1.311.775 2.052 1.877 2.052.984 0 1.729-.475 1.776-1.735h-.926c-.058.711-.317.983-.853.983-.6 0-.91-.434-.91-1.284v-2.035c0-.843.266-1.294.933-1.294.509 0 .883.3.9 1.075h.9c-.024-1.311-.768-1.837-1.793-1.837-1.213.003-1.904.762-1.904 2.056M91.606 97.704h.883V91.43h-.883zM95.8862 92.9395v1.334c0 .61-.233.91-.701.91-.452 0-.695-.3-.695-.899v-1.345c0-.594.227-.894.695-.894.468 0 .701.311.701.894m-2.268.01v1.311c0 1.051.65 1.601 1.57 1.601.927 0 1.577-.543 1.577-1.588v-1.311c0-1.051-.65-1.6-1.587-1.6-.92 0-1.56.559-1.56 1.587M100.7759 91.4297h-.869v.542c-.169-.351-.492-.609-1.001-.609-.634 0-1.068.39-1.068 1.259v3.172h.875v-3.087c0-.435.159-.643.533-.643s.661.242.661.7v3.03h.869zM104.1831 94.2568c0 .617-.259.927-.735.927-.441 0-.667-.267-.667-.853v-1.459c0-.6.233-.836.644-.836.468 0 .758.31.758.927zm.866-2.827h-.876v.549c-.165-.351-.526-.617-1.018-.617-.758 0-1.25.502-1.25 1.527v1.435c0 1.018.526 1.537 1.311 1.537.492 0 .802-.232.96-.576v2.419h.877v-6.274zM80.5083 88.3154v-4.489h.56c.859 0 1.159.391 1.159 1.267v1.951c0 .87-.283 1.268-1.159 1.268h-.56zm.6.734c1.395 0 2.086-.643 2.086-1.995v-1.968c0-1.317-.661-2.001-2.069-2.001h-1.56v5.968h1.543zM85.1592 85.6934h1.318v.276c0 .651-.243.901-.644.901-.418 0-.677-.283-.677-.927v-.25zm-.87-1.081v1.301c0 1.044.627 1.6 1.537 1.6.887 0 1.503-.468 1.503-1.57v-.877h-2.17v-.475c0-.627.216-.91.701-.91.401 0 .61.226.66.651h.809c-.05-.91-.583-1.318-1.476-1.318-.97.003-1.564.553-1.564 1.598M88.0542 87.4492h.917l.741-3.37.717 3.37h.854l-1.086-4.364h-1.035zM92.8428 85.6934h1.318v.276c0 .651-.243.901-.644.901-.418 0-.677-.283-.677-.927v-.25zm-.866-1.081v1.301c0 1.044.627 1.6 1.537 1.6.886 0 1.503-.468 1.503-1.57v-.877h-2.171v-.475c0-.627.216-.91.702-.91.4 0 .609.226.66.651h.809c-.051-.91-.583-1.318-1.476-1.318-.971.003-1.564.553-1.564 1.598M96.132 89.36h.883v-6.275h-.883zM100.4155 84.5947v1.335c0 .609-.233.91-.701.91-.452 0-.691-.301-.691-.9v-1.345c0-.593.226-.893.691-.893.465 0 .701.307.701.893m-2.271.007v1.311c0 1.051.65 1.601 1.57 1.601.927 0 1.577-.543 1.577-1.588v-1.31c0-1.052-.65-1.601-1.587-1.601-.917.003-1.56.559-1.56 1.587M103.9941 83.6914c.442 0 .667.267.667.853v1.46c0 .599-.249.825-.66.825-.452 0-.735-.31-.735-.916v-1.295c.004-.616.253-.927.728-.927m-.724 3.758v-.542c.175.34.542.609 1.034.609.758 0 1.244-.502 1.244-1.51v-1.452c0-1.017-.509-1.537-1.294-1.537-.492 0-.826.243-.984.576v-1.967h-.877v5.827h.877zM107.4253 85.6934h1.317v.276c0 .651-.242.901-.643.901-.418 0-.677-.283-.677-.927v-.25zm-.87-1.081v1.301c0 1.044.627 1.6 1.537 1.6.886 0 1.503-.468 1.503-1.57v-.877h-2.17v-.475c0-.627.215-.91.701-.91.401 0 .61.226.66.651h.809c-.05-.91-.583-1.318-1.476-1.318-.97.003-1.564.553-1.564 1.598M110.6875 87.4492h.876v-.65c.199.475.519.684 1.061.694v-.853c-.677-.016-1.061-.209-1.061-.852v-2.703h-.876z"/>
  </g>
</svg>