<svg xmlns="http://www.w3.org/2000/svg" viewBox="0 0 210 297">
  <defs>
    <clipPath id="a">
      <path d="M0 0h612v792H0z"/>
    </clipPath>
  </defs>
  <path fill="#636466" d="M184.3999 118.4311V39.4933l-23.758-13.7163-23.757 13.7163v78.9378z"/>
  <path fill="#828385" d="M160.6425 80.3892v4.756l.0044 33.2857h23.7535V66.6967z"/>
  <path fill="#ccc" d="M160.6425 80.3892v4.756l.0044 33.2857h23.7535V66.6967z"/>
  <path fill="#737476" d="M136.885 118.4313h23.7535l.0035-38.0417-23.757-13.6934z"/>
  <path fill="#e5e5e5" d="M136.885 118.4313h23.7535l.0035-38.0417-23.757-13.6934z"/>
  <path fill="#fff" d="M143.4873 63.3639v-19.766l17.1416-9.8962 17.109 9.8777v19.7845l-4.8925 2.8199V46.423l-12.249-7.0718-12.2483 7.0718.0326 19.766z"/>
  <path fill="#fff" d="M153.2728 69.0144l-.008-19.766 4.8935-2.8252V66.199l2.4542 1.4073 2.4463-1.417v-19.766l4.8935 2.8252v19.766l-7.3433 4.2378zM143.6593 78.4033h1.4338l.734 2.0435.735-2.0435h1.4064v3.836h-1.0953V79.852l-.9385 2.3872h-.3649l-.9288-2.3872v2.3872h-.9817zM150.1188 80.769h.8415l-.4186-1.476zm-.215-2.366h1.4214l1.2187 3.8359h-1.165l-.2036-.7138h-1.2716l-.2035.7138h-1.0249z"/>
  <g clip-path="url(#a)" transform="matrix(.88123 0 0 -.88123 76.2306 186.2918)">
    <path fill="#fff" d="M86.9522 120.2266v.049c0 1.327.974 2.222 2.283 2.222 1.029 0 1.943-.469 2.028-1.602h-1.237c-.06.408-.322.622-.785.622-.615 0-.986-.475-.986-1.261v-.048c0-.707.261-1.254 1.016-1.254.609 0 .84.31.865.657h-.816v.87h2.045v-.535c0-1.109-.725-1.943-2.13-1.943-1.479 0-2.283.919-2.283 2.223M92.2725 122.4297h3.008v-.961h-1.765v-.749h1.405v-.889h-1.405v-.791h1.862v-.963h-3.105zM96.2989 122.4297h1.407l1.394-2.453v2.453h1.09v-4.353h-1.205l-1.59 2.734v-2.734h-1.096zM102.1622 121.4688h-1.126v.961h3.507v-.961h-1.127v-3.392h-1.254zM108.3135 120.2393v.048c0 .773-.39 1.23-1.006 1.23-.614 0-.997-.444-.997-1.236v-.049c0-.791.401-1.247 1.004-1.247.615 0 .999.475.999 1.254m-3.307-.013v.049c0 1.327.999 2.216 2.301 2.216 1.328 0 2.308-.834 2.308-2.186v-.048c0-1.34-.919-2.253-2.325-2.253-1.407 0-2.284.913-2.284 2.222M111.6534 118.2539l1.521 1.613c.433.463.719.834.719 1.2 0 .292-.152.487-.462.487-.311 0-.507-.19-.561-.706h-1.132c.042 1.09.7 1.643 1.754 1.643 1.064 0 1.631-.572 1.631-1.376 0-.596-.335-1.047-.822-1.515l-.609-.592h1.462v-.931h-3.501zM78.5723 112.9287v.05c0 1.339.95 2.221 2.223 2.221 1.132 0 1.918-.523 2.02-1.673h-1.284c-.048.444-.292.687-.73.687-.561 0-.915-.437-.915-1.229v-.05c0-.785.335-1.23.933-1.23.438 0 .749.233.81.713h1.241c-.085-1.127-.901-1.711-2.027-1.711-1.522 0-2.271.889-2.271 2.222M83.7169 115.1328h3.008v-.961h-1.765v-.749h1.405v-.89h-1.405v-.79h1.862v-.963h-3.105zM89.3868 113.1484c.42 0 .628.176.628.529v.025c0 .353-.22.494-.622.494h-.407v-1.048zm-1.644 1.984h1.705c1.138 0 1.772-.462 1.772-1.38v-.025c0-.621-.329-.969-.785-1.144l1.04-1.803h-1.315l-.882 1.558h-.292v-1.558h-1.243zM92.9981 114.1719h-1.125v.961h3.507v-.961h-1.127v-3.392h-1.255zM96.251 115.133h1.26v-4.353h-1.26zM98.67 115.1328h2.941v-.967h-1.686v-.927h1.345v-.919h-1.345v-1.54H98.67zM102.521 115.133h1.26v-4.353h-1.26zM104.9405 115.1328h3.008v-.961h-1.765v-.749h1.405v-.89h-1.405v-.79h1.862v-.963h-3.105zM110.5069 111.7432c.743 0 1.072.39 1.072 1.199v.048c0 .828-.329 1.182-1.084 1.182h-.274v-2.429zm-1.54 3.39h1.583c1.547 0 2.332-.773 2.332-2.124v-.05c0-1.357-.804-2.179-2.338-2.179h-1.577zM77.1807 102.9463c.543 0 .827.285.827.886v.342c0 .626-.293.843-.827.843h-.534v-2.071zm-1.478 2.798h1.478c1.135 0 1.754-.485 1.754-1.561v-.359c0-1.069-.651-1.57-1.737-1.57h-.551v-2.48h-.944zM79.96 104.1416h.877v-.651c.199.474.517.683 1.06.693v-.852c-.676-.017-1.06-.209-1.06-.851v-2.706h-.877zM84.9678 101.2852v1.336c0 .61-.233.91-.701.91-.451 0-.694-.3-.694-.902v-1.344c0-.593.226-.893.694-.893.468 0 .701.309.701.893m-2.271.009v1.31c0 1.053.652 1.604 1.57 1.604.926 0 1.577-.543 1.577-1.587v-1.31c0-1.052-.651-1.603-1.585-1.603-.92 0-1.562.558-1.562 1.586M87.1368 103.4727h-.46v.669h.46v.751c0 .76.417 1.185 1.193 1.185.209 0 .36-.026.444-.058v-.669c-.051.018-.185.034-.293.034-.342 0-.477-.183-.477-.51v-.733h.743v-.669h-.743v-3.698h-.867zM90.3165 102.3877h1.318v.275c0 .652-.241.903-.642.903-.417 0-.676-.284-.676-.927zm-.869-1.085v1.302c0 1.045.627 1.603 1.536 1.603.886 0 1.503-.467 1.503-1.569v-.877h-2.17v-.477c0-.625.217-.909.701-.909.401 0 .61.225.659.651h.81c-.05-.91-.584-1.319-1.477-1.319-.968 0-1.562.551-1.562 1.595M93.4532 101.0439h.827c.017-.468.192-.685.585-.685.366 0 .517.183.517.542 0 .376-.242.519-.743.752-.743.343-1.12.676-1.12 1.394 0 .76.578 1.161 1.295 1.161.777 0 1.319-.342 1.328-1.244h-.819c0 .417-.191.593-.509.593-.308 0-.475-.159-.475-.46 0-.342.183-.458.725-.717.669-.31 1.169-.618 1.169-1.412 0-.793-.45-1.26-1.36-1.26-.901 0-1.42.467-1.42 1.336M97.1339 101.0439h.827c.017-.468.192-.685.585-.685.367 0 .517.183.517.542 0 .376-.242.519-.743.752-.744.343-1.12.676-1.12 1.394 0 .76.577 1.161 1.295 1.161.777 0 1.319-.342 1.328-1.244h-.819c0 .417-.191.593-.509.593-.308 0-.475-.159-.475-.46 0-.342.182-.458.725-.717.668-.31 1.169-.618 1.169-1.412 0-.793-.45-1.26-1.36-1.26-.901 0-1.42.467-1.42 1.336M100.999 104.142h.868v-4.367h-.868zm-.084 1.1c0 .285.217.51.518.51.292 0 .526-.225.526-.51 0-.291-.227-.509-.526-.509-.309 0-.518.218-.518.509M105.2559 101.2852v1.336c0 .61-.233.91-.701.91-.451 0-.694-.3-.694-.902v-1.344c0-.593.226-.893.694-.893.468 0 .701.309.701.893m-2.271.009v1.31c0 1.053.652 1.604 1.57 1.604.926 0 1.577-.543 1.577-1.587v-1.31c0-1.052-.651-1.603-1.585-1.603-.919 0-1.562.558-1.562 1.586M107.2325 104.1416h.877v-.552c.15.351.5.618 1.01.618.651 0 1.06-.401 1.06-1.277v-3.156h-.869v3.081c0 .442-.167.642-.542.642-.384 0-.659-.242-.659-.701v-3.022h-.877zM113.2589 101.0098v.735h-.452c-.492 0-.717-.184-.717-.676v-.117c0-.425.167-.618.518-.618.408 0 .651.2.651.676m-2.037-.108v.15c0 .927.593 1.27 1.545 1.27h.492v.508c0 .46-.117.709-.519.709-.367 0-.525-.207-.542-.583h-.843c.025.851.576 1.252 1.412 1.252.876 0 1.368-.426 1.368-1.361v-3.072h-.868v.425c-.158-.275-.392-.492-.91-.492-.668 0-1.135.401-1.135 1.194M115.36 106.052h.885v-6.277h-.885zM80.7696 97.3984h2.779v-.743h-1.836v-1.92h1.487v-.735h-1.487v-2.572h-.943zM84.4161 95.7959h.877v-.651c.199.474.517.683 1.06.693v-.852c-.676-.017-1.06-.209-1.06-.852v-2.705h-.877zM89.4249 92.9395v1.336c0 .61-.233.91-.701.91-.451 0-.693-.3-.693-.902v-1.344c0-.593.225-.893.693-.893.468 0 .701.309.701.893m-2.271.009v1.31c0 1.053.652 1.604 1.57 1.604.927 0 1.578-.543 1.578-1.587v-1.31c0-1.052-.651-1.603-1.586-1.603-.918 0-1.562.558-1.562 1.586M91.4014 95.7959h.877v-.552c.15.351.501.618 1.011.618.65 0 1.06-.401 1.06-1.277v-3.156h-.869v3.081c0 .442-.167.642-.543.642-.384 0-.659-.242-.659-.701v-3.022h-.877zM96.5928 96.6875v-.892h.727v-.669h-.727v-2.562c0-.326.134-.467.409-.467.143 0 .268.016.334.041v-.676c-.083-.034-.259-.067-.476-.067-.793 0-1.143.385-1.143 1.11v2.621h-.451v.669h.451v.892zM100.0303 97.3984h2.79v-.743h-1.846v-1.729h1.502v-.717h-1.502v-2.038h1.962v-.743h-2.906zM104.0108 95.7959h.878v-.552c.15.351.5.618 1.01.618.651 0 1.059-.401 1.059-1.277v-3.156h-.868v3.081c0 .442-.167.642-.542.642-.384 0-.659-.242-.659-.701v-3.022h-.878zM110.338 94.2588c0 .618-.258.927-.734.927-.444 0-.668-.268-.668-.852v-1.461c0-.6.234-.835.642-.835.468 0 .76.309.76.928zm.868-2.83h-.877v.551c-.167-.35-.526-.617-1.018-.617-.759 0-1.251.5-1.251 1.527v1.435c0 1.019.525 1.538 1.309 1.538.493 0 .802-.234.96-.577v2.42h.877zM80.5118 88.3174v-4.491h.56c.859 0 1.159.392 1.159 1.269v1.953c0 .868-.283 1.269-1.159 1.269zm.601.735c1.393 0 2.087-.642 2.087-1.996v-1.97c0-1.319-.66-2.003-2.07-2.003h-1.562v5.969zM85.1602 85.6963h1.318v.275c0 .652-.241.902-.642.902-.417 0-.676-.283-.676-.926zm-.869-1.085v1.302c0 1.044.627 1.603 1.536 1.603.886 0 1.503-.467 1.503-1.569v-.877h-2.17v-.477c0-.625.217-.91.701-.91.401 0 .61.226.659.652h.81c-.05-.91-.585-1.319-1.477-1.319-.968 0-1.562.551-1.562 1.595M88.0557 87.4502h.918l.743-3.373.719 3.373h.85l-1.084-4.367h-1.036zM92.8467 85.6963h1.318v.275c0 .652-.241.902-.642.902-.417 0-.676-.283-.676-.926zm-.869-1.085v1.302c0 1.044.627 1.603 1.536 1.603.886 0 1.503-.467 1.503-1.569v-.877h-2.17v-.477c0-.625.217-.91.701-.91.401 0 .61.226.659.652h.81c-.05-.91-.584-1.319-1.477-1.319-.968 0-1.562.551-1.562 1.595M96.134 89.36h.885v-6.277h-.885zM100.4161 84.5938v1.336c0 .61-.233.91-.701.91-.452 0-.694-.3-.694-.902v-1.344c0-.593.226-.893.694-.893.468 0 .701.309.701.893m-2.271.009v1.31c0 1.053.652 1.604 1.57 1.604.926 0 1.577-.543 1.577-1.587v-1.311c0-1.051-.651-1.602-1.586-1.602-.919 0-1.561.558-1.561 1.586M103.9962 83.6924c.443 0 .668.267.668.852v1.461c0 .601-.251.826-.66.826-.45 0-.734-.309-.734-.918v-1.294c0-.618.249-.927.726-.927m-.726 3.758v-.543c.175.342.542.609 1.035.609.759 0 1.244-.501 1.244-1.511v-1.454c0-1.018-.509-1.535-1.294-1.535-.492 0-.826.241-.985.576v-1.969h-.878v5.827zM107.4258 85.6963h1.318v.275c0 .652-.242.902-.642.902-.417 0-.676-.283-.676-.926zm-.869-1.085v1.302c0 1.044.626 1.603 1.536 1.603.886 0 1.503-.467 1.503-1.569v-.877h-2.17v-.477c0-.625.217-.91.701-.91.401 0 .609.226.659.652h.81c-.051-.91-.585-1.319-1.478-1.319-.967 0-1.561.551-1.561 1.595M110.6885 87.4502h.877v-.651c.201.474.518.683 1.06.693v-.853c-.676-.016-1.06-.208-1.06-.851v-2.705h-.877z"/>
  </g>
</svg>