<svg xmlns="http://www.w3.org/2000/svg" viewBox="0 0 60.1635 117.318">
  <path fill="#fff" d="M60.1635 117.318V17.3673L30.0813 0 0 17.3673v99.9507z"/>
  <path fill="#8a1b55" d="M29.986 7.8468L6.4797 21.418v78.1019h47.0118V21.4179z"/>
  <g transform="matrix(.8719 0 0 -.8719 -53.4368 166.6642)">
    <g opacity=".2">
      <path fill="#010101" d="M122.6385 135.7182l-26.959-15.54.004-43.168h26.955z"/>
    </g>
    <g opacity=".1">
      <path fill="#010101" d="M68.7195 135.7182v-58.708h26.956l.004 43.168z"/>
    </g>
  </g>
  <path fill="#fff" d="M13.0121 45.0357V25.479l16.9601-9.7914 16.9279 9.7731v19.575l-4.8408 2.791V28.2742L29.94 21.2773l-12.1185 6.997.0322 19.5567z"/>
  <path fill="#fff" d="M22.694 50.626l-.0078-19.5566 4.8417-2.7944v19.5653l2.4282 1.3933 2.4204-1.4028V28.275l4.8416 2.7944V50.626l-7.2655 4.193zM13.1824 59.918h1.416l.7262 2.0202.7272-2.0202h1.3898v3.7928h-1.082v-2.3602l-.9286 2.3602h-.3601l-.9181-2.3602v2.3602h-.9704zM19.5718 62.257h.8327l-.4142-1.4578zm-.2119-2.3393h1.4055l1.2032 3.7927h-1.15l-.2023-.7053H19.36l-.2022.7053h-1.0123z"/>
  <g transform="matrix(.8719 0 0 -.8719 -53.4368 166.6642)">
    <path fill="#fff" d="M86.8428 120.2278v.049c0 1.326.973 2.22 2.281 2.22 1.028 0 1.941-.468 2.026-1.6h-1.236c-.06.408-.322.621-.784.621-.614 0-.986-.475-.986-1.26v-.049c0-.705.262-1.252 1.016-1.252.609 0 .839.31.864.657h-.815v.869h2.044v-.535c0-1.107-.724-1.941-2.129-1.941-1.478 0-2.281.919-2.281 2.221M92.1631 122.4299h3.005v-.961h-1.764v-.748h1.405v-.889h-1.405v-.791h1.862v-.961h-3.103zM96.1895 122.4299h1.405l1.393-2.452v2.452h1.089v-4.35h-1.204l-1.588 2.732v-2.732h-1.095zM102.0518 121.469h-1.126v.961h3.505v-.961h-1.126v-3.389h-1.253zM108.2002 120.24v.049c0 .772-.389 1.229-1.004 1.229-.614 0-.997-.445-.997-1.236v-.048c0-.791.401-1.247 1.004-1.247.614 0 .997.474.997 1.253m-3.303-.012v.048c0 1.326.997 2.215 2.299 2.215 1.326 0 2.306-.834 2.306-2.184v-.049c0-1.338-.918-2.25-2.323-2.25-1.406 0-2.282.912-2.282 2.22M111.544 118.2571l1.521 1.612c.431.462.718.833.718 1.199 0 .291-.153.486-.463.486-.31 0-.505-.189-.559-.706h-1.132c.043 1.089.699 1.642 1.752 1.642 1.064 0 1.63-.571 1.63-1.375 0-.595-.334-1.046-.821-1.514l-.608-.59h1.459v-.93h-3.497zM78.4629 112.9304v.049c0 1.338.948 2.22 2.22 2.22 1.132 0 1.916-.523 2.019-1.673h-1.283c-.049.444-.292.687-.729.687-.561 0-.914-.438-.914-1.228v-.049c0-.785.335-1.229.931-1.229.439 0 .749.231.81.712h1.24c-.085-1.125-.899-1.71-2.025-1.71-1.521 0-2.269.888-2.269 2.221M83.6074 115.1326h3.005v-.961h-1.764v-.748h1.405v-.889h-1.405v-.791h1.862v-.961h-3.103zM89.2754 113.1496c.42 0 .627.176.627.528v.025c0 .353-.22.493-.621.493h-.407v-1.046zm-1.643 1.983h1.705c1.136 0 1.769-.462 1.769-1.381v-.024c0-.62-.328-.968-.784-1.144l1.04-1.801h-1.315l-.881 1.557h-.292v-1.557h-1.242zM92.8877 114.1711h-1.126v.961h3.504v-.961h-1.125v-3.388h-1.253zM96.141 115.133H97.4v-4.35h-1.259zM98.5606 115.1326h2.938v-.967h-1.684v-.925h1.344v-.919h-1.344v-1.539h-1.254zM102.41 115.133h1.259v-4.35h-1.259zM104.8301 115.1326h3.005v-.961h-1.764v-.748h1.405v-.889h-1.405v-.791h1.862v-.961h-3.103zM110.3945 111.7439c.742 0 1.071.389 1.071 1.199v.048c0 .827-.329 1.18-1.083 1.18h-.274v-2.427zm-1.538 3.389h1.581c1.545 0 2.33-.773 2.33-2.123v-.05c0-1.356-.803-2.177-2.336-2.177h-1.575zM78.7305 91.4319v.727c.134-.05.275-.083.526-.083.393 0 .645.192.645.752v4.499h.935v-4.541c0-1.053-.601-1.487-1.429-1.487-.334 0-.535.057-.677.133M83.9219 92.5857v.736h-.451c-.493 0-.719-.184-.719-.677v-.118c0-.426.167-.618.518-.618.41 0 .652.2.652.677m-2.04-.108v.15c0 .928.594 1.271 1.547 1.271h.493v.51c0 .459-.117.711-.519.711-.367 0-.526-.21-.543-.586h-.844c.025.853.577 1.255 1.413 1.255.878 0 1.371-.427 1.371-1.363v-3.077h-.869v.426c-.159-.276-.394-.493-.912-.493-.668 0-1.137.401-1.137 1.196M85.627 95.7209h.92l.744-3.378.719 3.378h.853l-1.087-4.373h-1.037zM91.5879 92.5857v.736h-.451c-.493 0-.72-.184-.72-.677v-.118c0-.426.168-.618.519-.618.41 0 .652.2.652.677m-2.04-.108v.15c0 .928.594 1.271 1.547 1.271h.493v.51c0 .459-.117.711-.519.711-.367 0-.526-.21-.543-.586h-.844c.025.853.577 1.255 1.413 1.255.878 0 1.371-.427 1.371-1.363v-3.077h-.869v.426c-.159-.276-.394-.493-.912-.493-.669 0-1.137.401-1.137 1.196M93.544 93.0119h.911c.017-.727.243-1.011.803-1.011.427 0 .694.284.694.844 0 .661-.309.853-.986 1.212-.862.443-1.33.895-1.33 1.84 0 .936.594 1.505 1.547 1.505.962 0 1.572-.477 1.589-1.564h-.887c-.008.635-.301.828-.702.828-.41 0-.636-.242-.636-.702 0-.519.201-.736.879-1.096.877-.443 1.446-.819 1.446-1.948 0-1.087-.636-1.656-1.614-1.656-1.078 0-1.705.569-1.714 1.748M97.916 92.8616v1.321c0 1.087.686 1.606 1.53 1.606.785 0 1.43-.335 1.463-1.414h-.836c-.016.586-.276.728-.619.728-.427 0-.66-.259-.66-.887v-1.371c0-.652.242-.886.677-.886.351 0 .652.2.661.828h.794c-.017-1.054-.585-1.505-1.455-1.505-.903 0-1.555.476-1.555 1.58M101.9531 95.7209h.878v-.652c.201.476.518.686 1.062.694v-.853c-.677-.017-1.062-.209-1.062-.853v-2.709h-.878zM104.888 95.721h.869v-4.373h-.869zm-.083 1.104c0 .284.216.51.517.51.293 0 .528-.226.528-.51 0-.293-.226-.51-.528-.51-.308 0-.517.217-.517.51M108.5742 91.9587c.443 0 .669.268.669.853v1.463c0 .601-.251.828-.661.828-.45 0-.735-.31-.735-.92v-1.296c0-.618.25-.928.727-.928m-.727 3.762v-.543c.175.343.543.61 1.037.61.76 0 1.246-.501 1.246-1.513v-1.455c0-1.02-.51-1.538-1.296-1.538-.493 0-.828.242-.987.576v-1.973h-.878v5.836zM112.2949 96.616v-.895h.728v-.669h-.728v-2.567c0-.326.134-.468.41-.468.142 0 .268.016.334.042v-.677c-.084-.034-.26-.067-.476-.067-.794 0-1.146.384-1.146 1.112v2.625h-.451v.669h.451v.895zM77.0889 102.863c.542 0 .825.287.825.887v.337c0 .626-.289.845-.825.845h-.532v-2.059zm-1.477 2.797h1.477c1.136 0 1.752-.485 1.752-1.56v-.36c0-1.069-.65-1.567-1.735-1.567h-.549v-2.481h-.945zM79.8584 104.0564h.877v-.65c.152.445.588.732 1.058.693v-.852c-.674-.017-1.058-.209-1.058-.849v-2.696h-.877zM84.877 101.2121v1.348c0 .61-.236.909-.701.909-.465 0-.695-.299-.695-.902v-1.348c0-.59.226-.89.695-.89s.701.29.701.86zm-2.271 0v1.324c0 1.052.65 1.601 1.57 1.601.801.071 1.508-.522 1.578-1.323.007-.087.007-.174-.001-.261v-1.311c.077-.808-.515-1.525-1.322-1.602a1.4668 1.4668 0 0 0-.265-.002c-.804-.058-1.503.546-1.561 1.349-.006.076-.005.15.001.225M87.0469 103.3889h-.448v.674h.462v.751c-.068.589.354 1.12.942 1.188a1.1 1.1 0 0 0 .25-.001c.149.007.299-.013.442-.058v-.674c-.096.023-.195.035-.294.035-.336 0-.474-.186-.474-.513v-.735h.744v-.674h-.758v-3.707h-.866zM90.2246 102.3039h1.317v.276c0 .651-.239.903-.639.903-.402 0-.674-.286-.674-.927zm-.866-1.085v1.317c0 1.041.624 1.601 1.533 1.601.91 0 1.503-.465 1.503-1.567v-.876h-2.17v-.506c0-.623.219-.906.701-.906.401 0 .61.222.674.65h.809c-.051-.91-.583-1.32-1.476-1.32-.984.013-1.574.566-1.574 1.607M93.3623 100.9626h.825c0-.469.193-.674.587-.674.394 0 .516.182.516.542 0 .361-.24.516-.742.749-.742.337-1.119.674-1.119 1.395s.577 1.159 1.294 1.159c.776 0 1.318-.337 1.327-1.243h-.818c0 .418-.192.593-.509.593a.4182.4182 0 0 1-.473-.354.4535.4535 0 0 1-.002-.104c0-.337.182-.459.724-.718.674-.311 1.17-.617 1.17-1.412 0-.796-.452-1.261-1.348-1.261-.897 0-1.432.459-1.432 1.328M97.0459 100.9626h.829c0-.469.192-.674.582-.674.392 0 .52.182.52.542 0 .361-.243.516-.745.749-.742.337-1.12.674-1.12 1.395s.577 1.159 1.294 1.159c.777 0 1.319-.337 1.328-1.243h-.822c0 .418-.191.593-.509.593a.4167.4167 0 0 1-.472-.354.404.404 0 0 1-.003-.104c0-.337.182-.459.725-.718.674-.311 1.169-.617 1.169-1.412 0-.796-.452-1.261-1.347-1.261-.897 0-1.429.459-1.429 1.328M100.907 104.056h.856v-4.364h-.856zm-.084 1.102c-.004.278.218.505.495.509h.025c.282.008.517-.216.524-.498.001-.004.001-.007.001-.011a.5051.5051 0 0 0-.502-.509h-.023a.4949.4949 0 0 0-.519.471c-.001.013-.002.025-.001.038M105.1641 101.2121v1.348c0 .61-.232.909-.701.909s-.678-.319-.678-.933v-1.347c0-.59.223-.891.692-.891.467 0 .687.321.687.891zm-2.271 0v1.324c0 1.052.653 1.601 1.57 1.601.801.071 1.507-.522 1.578-1.323.007-.087.007-.174-.001-.261v-1.311c.004-.869-.696-1.577-1.565-1.582-.87-.005-1.579.696-1.582 1.565zM107.1553 104.0564h.876v-.549c.178.394.579.639 1.012.616.649 0 1.057-.401 1.057-1.277v-3.154h-.866v3.08c0 .441-.168.643-.542.643a.6299.6299 0 0 1-.677-.58.602.602 0 0 1 .003-.12v-3.033h-.863zM113.1533 100.9289v.735h-.437c-.493 0-.719-.186-.719-.674v-.138c0-.425.169-.617.519-.617.322-.042.616.185.657.506.008.063.005.126-.006.188zm-2.021-.107v.148c0 .926.592 1.27 1.542 1.27h.493v.509c0 .458-.118.707-.519.707s-.526-.208-.543-.582h-.842c.027.848.577 1.249 1.411 1.249.836 0 1.369-.423 1.369-1.347v-3.074h-.869v.429a.924.924 0 0 0-.907-.496c-.671-.01-1.135.391-1.135 1.187M115.27 105.97h.887v-6.278h-.887zM80.418 88.2346v-4.489h.56c.859 0 1.159.391 1.159 1.267v1.955c0 .866-.283 1.267-1.159 1.267zm.604.735c1.391 0 2.085-.644 2.085-1.995v-1.962c0-1.32-.673-2.022-2.069-2.022h-1.563v5.979zM85.0684 85.613h1.318v.276c0 .651-.243.903-.643.903-.402 0-.675-.286-.675-.927zm-.869-1.085v1.303c0 1.042.627 1.601 1.537 1.601.909 0 1.503-.465 1.503-1.567v-.876h-2.171v-.479c0-.623.216-.906.701-.906.402 0 .611.222.674.651h.796c-.051-.91-.587-1.321-1.48-1.321-.967 0-1.56.552-1.56 1.594M87.9639 87.3718h.916l.752-3.37.718 3.37h.848l-1.085-4.381h-1.041zM92.752 85.613h1.321v.276c0 .651-.243.903-.643.903-.402 0-.674-.286-.674-.927zm-.866-1.085v1.303c0 1.042.627 1.601 1.537 1.601.91 0 1.499-.465 1.499-1.567v-.876h-2.17v-.479c0-.623.219-.906.704-.906.399 0 .608.222.675.651h.809c-.048-.91-.584-1.321-1.477-1.321-.983 0-1.577.552-1.577 1.594M96.035 89.279h.886v-6.288h-.886zM100.3281 84.5207v1.348c0 .61-.236.91-.701.91-.465 0-.695-.3-.695-.903v-1.348c0-.59.226-.89.695-.89s.697.29.697.873zm-2.271 0v1.311c0 1.051.65 1.601 1.57 1.601.801.07 1.507-.522 1.577-1.323.008-.087.008-.174 0-.261v-1.311c0-.869-.704-1.574-1.573-1.574s-1.574.705-1.574 1.574zM103.9033 83.6174c.441 0 .674.266.674.853v1.453c0 .599-.249.825-.674.825-.425 0-.734-.307-.734-.917v-1.294c.009-.617.258-.927.734-.927zm-.725 3.754v-.543c.201.385.602.622 1.035.611.758 0 1.244-.499 1.244-1.51v-1.452c0-1.011-.509-1.537-1.294-1.537-.414-.023-.802.204-.985.576v-1.968h-.876v5.823zM107.3506 85.613h1.317v.276c0 .651-.242.903-.639.903-.399 0-.674-.286-.674-.927zm-.869-1.085v1.303c0 1.042.626 1.601 1.536 1.601s1.503-.465 1.503-1.567v-.876h-2.17v-.479c0-.623.216-.906.701-.906.402 0 .611.222.674.651h.789c-.051-.91-.587-1.321-1.477-1.321-.98 0-1.556.552-1.556 1.594M110.5957 87.3718h.877v-.674c.154.446.591.731 1.061.694v-.853c-.674-.017-1.061-.209-1.061-.849v-2.695h-.877z"/>
  </g>
</svg>